<mxfile host="65bd71144e">
    <diagram id="GqgnKlXfvGcJaFH9Wpow" name="第 1 页">
        <mxGraphModel dx="2527" dy="790" grid="1" gridSize="10" guides="1" tooltips="1" connect="1" arrows="1" fold="1" page="1" pageScale="1" pageWidth="1169" pageHeight="827" math="0" shadow="0">
            <root>
                <mxCell id="0"/>
                <mxCell id="1" parent="0"/>
                <mxCell id="2" style="edgeStyle=none;html=1;entryX=0;entryY=0;entryDx=0;entryDy=0;" parent="1" target="8" edge="1">
                    <mxGeometry relative="1" as="geometry">
                        <mxPoint x="260" y="220" as="targetPoint"/>
                        <mxPoint x="70" y="220" as="sourcePoint"/>
                    </mxGeometry>
                </mxCell>
                <mxCell id="3" value="个人获奖信息" style="edgeLabel;html=1;align=center;verticalAlign=middle;resizable=0;points=[];" parent="2" vertex="1" connectable="0">
                    <mxGeometry x="-0.5625" y="2" relative="1" as="geometry">
                        <mxPoint x="66" y="12" as="offset"/>
                    </mxGeometry>
                </mxCell>
                <mxCell id="4" style="edgeStyle=none;html=1;entryX=0;entryY=0.5;entryDx=0;entryDy=0;" parent="1" target="8" edge="1">
                    <mxGeometry relative="1" as="geometry">
                        <mxPoint x="40" y="365.17647058823536" as="targetPoint"/>
                        <mxPoint x="50" y="365" as="sourcePoint"/>
                    </mxGeometry>
                </mxCell>
                <mxCell id="5" value="批量获奖信息" style="edgeLabel;html=1;align=center;verticalAlign=middle;resizable=0;points=[];" parent="4" vertex="1" connectable="0">
                    <mxGeometry x="-0.3984" y="-2" relative="1" as="geometry">
                        <mxPoint x="35" y="-17" as="offset"/>
                    </mxGeometry>
                </mxCell>
                <mxCell id="6" style="edgeStyle=none;html=1;exitX=1;exitY=1;exitDx=0;exitDy=0;" parent="1" source="13" edge="1">
                    <mxGeometry relative="1" as="geometry">
                        <mxPoint x="990" y="480" as="targetPoint"/>
                    </mxGeometry>
                </mxCell>
                <mxCell id="7" value="审核结果" style="edgeLabel;html=1;align=center;verticalAlign=middle;resizable=0;points=[];" parent="6" vertex="1" connectable="0">
                    <mxGeometry x="0.2883" y="-4" relative="1" as="geometry">
                        <mxPoint x="-24" y="-35" as="offset"/>
                    </mxGeometry>
                </mxCell>
                <mxCell id="8" value="2&lt;br&gt;录入学生获奖信息" style="ellipse;whiteSpace=wrap;html=1;aspect=fixed;" parent="1" vertex="1">
                    <mxGeometry x="200" y="280" width="170" height="170" as="geometry"/>
                </mxCell>
                <mxCell id="9" style="edgeStyle=none;html=1;exitX=1;exitY=0;exitDx=0;exitDy=0;" parent="1" source="13" edge="1">
                    <mxGeometry relative="1" as="geometry">
                        <mxPoint x="960" y="220" as="targetPoint"/>
                    </mxGeometry>
                </mxCell>
                <mxCell id="10" value="全部学生获奖情况" style="edgeLabel;html=1;align=center;verticalAlign=middle;resizable=0;points=[];" parent="9" vertex="1" connectable="0">
                    <mxGeometry x="0.5219" y="1" relative="1" as="geometry">
                        <mxPoint x="-68" as="offset"/>
                    </mxGeometry>
                </mxCell>
                <mxCell id="11" style="edgeStyle=none;html=1;entryX=1;entryY=0.5;entryDx=0;entryDy=0;" parent="1" target="13" edge="1">
                    <mxGeometry relative="1" as="geometry">
                        <mxPoint x="1010" y="369.9999999999999" as="targetPoint"/>
                        <mxPoint x="1090" y="365" as="sourcePoint"/>
                    </mxGeometry>
                </mxCell>
                <mxCell id="12" value="学生获奖信息审核意见" style="edgeLabel;html=1;align=center;verticalAlign=middle;resizable=0;points=[];" parent="11" vertex="1" connectable="0">
                    <mxGeometry x="0.2083" relative="1" as="geometry">
                        <mxPoint x="17" y="-15" as="offset"/>
                    </mxGeometry>
                </mxCell>
                <mxCell id="13" value="3&lt;br&gt;审核学生获奖信息" style="ellipse;whiteSpace=wrap;html=1;aspect=fixed;" parent="1" vertex="1">
                    <mxGeometry x="710" y="280" width="170" height="170" as="geometry"/>
                </mxCell>
                <mxCell id="14" style="edgeStyle=none;html=1;" parent="1" target="22" edge="1">
                    <mxGeometry relative="1" as="geometry">
                        <mxPoint x="-430" y="209.9999999999999" as="targetPoint"/>
                        <mxPoint x="-440" y="320" as="sourcePoint"/>
                    </mxGeometry>
                </mxCell>
                <mxCell id="15" value="学生账号密码" style="edgeLabel;html=1;align=center;verticalAlign=middle;resizable=0;points=[];" parent="14" vertex="1" connectable="0">
                    <mxGeometry x="-0.3223" y="1" relative="1" as="geometry">
                        <mxPoint x="47" y="-11" as="offset"/>
                    </mxGeometry>
                </mxCell>
                <mxCell id="16" style="edgeStyle=none;html=1;entryX=0.037;entryY=0.712;entryDx=0;entryDy=0;entryPerimeter=0;" parent="1" target="22" edge="1">
                    <mxGeometry relative="1" as="geometry">
                        <mxPoint x="-450" y="364.66666666666674" as="targetPoint"/>
                        <mxPoint x="-440" y="440" as="sourcePoint"/>
                    </mxGeometry>
                </mxCell>
                <mxCell id="17" value="管理员账号密码" style="edgeLabel;html=1;align=center;verticalAlign=middle;resizable=0;points=[];" parent="16" vertex="1" connectable="0">
                    <mxGeometry x="-0.32" y="-4" relative="1" as="geometry">
                        <mxPoint x="32" y="-31" as="offset"/>
                    </mxGeometry>
                </mxCell>
                <mxCell id="18" style="edgeStyle=none;html=1;entryX=0.249;entryY=0.955;entryDx=0;entryDy=0;entryPerimeter=0;" parent="1" target="22" edge="1">
                    <mxGeometry relative="1" as="geometry">
                        <mxPoint x="-440" y="480" as="targetPoint"/>
                        <mxPoint x="-440" y="520" as="sourcePoint"/>
                    </mxGeometry>
                </mxCell>
                <mxCell id="19" value="教师账号密码" style="edgeLabel;html=1;align=center;verticalAlign=middle;resizable=0;points=[];" parent="18" vertex="1" connectable="0">
                    <mxGeometry x="-0.5227" y="-8" relative="1" as="geometry">
                        <mxPoint x="43" y="-44" as="offset"/>
                    </mxGeometry>
                </mxCell>
                <mxCell id="20" style="edgeStyle=none;html=1;entryX=0;entryY=0;entryDx=0;entryDy=0;" parent="1" target="22" edge="1">
                    <mxGeometry relative="1" as="geometry">
                        <mxPoint x="-330" y="160" as="targetPoint"/>
                        <mxPoint x="-440" y="240" as="sourcePoint"/>
                    </mxGeometry>
                </mxCell>
                <mxCell id="21" value="评审账号密码" style="edgeLabel;html=1;align=center;verticalAlign=middle;resizable=0;points=[];" parent="20" vertex="1" connectable="0">
                    <mxGeometry x="-0.4237" y="-2" relative="1" as="geometry">
                        <mxPoint x="62" y="1" as="offset"/>
                    </mxGeometry>
                </mxCell>
                <mxCell id="22" value="1&lt;br&gt;用户登录" style="ellipse;whiteSpace=wrap;html=1;aspect=fixed;" parent="1" vertex="1">
                    <mxGeometry x="-280" y="280" width="170" height="170" as="geometry"/>
                </mxCell>
                <mxCell id="23" value="学生获奖信息" style="html=1;dashed=0;whitespace=wrap;shape=partialRectangle;right=0;left=0;" parent="1" vertex="1">
                    <mxGeometry x="440" y="520" width="170" height="60" as="geometry"/>
                </mxCell>
                <mxCell id="24" value="" style="curved=1;endArrow=classic;html=1;exitX=0.995;exitY=0.663;exitDx=0;exitDy=0;entryX=0.25;entryY=0;entryDx=0;entryDy=0;exitPerimeter=0;" parent="1" source="8" target="23" edge="1">
                    <mxGeometry width="50" height="50" relative="1" as="geometry">
                        <mxPoint x="420" y="440" as="sourcePoint"/>
                        <mxPoint x="470" y="390" as="targetPoint"/>
                        <Array as="points">
                            <mxPoint x="420" y="410"/>
                            <mxPoint x="483" y="480"/>
                        </Array>
                    </mxGeometry>
                </mxCell>
                <mxCell id="25" value="" style="curved=1;endArrow=classic;html=1;exitX=0.75;exitY=0;exitDx=0;exitDy=0;entryX=0;entryY=0.5;entryDx=0;entryDy=0;" parent="1" source="23" target="13" edge="1">
                    <mxGeometry width="50" height="50" relative="1" as="geometry">
                        <mxPoint x="550" y="400" as="sourcePoint"/>
                        <mxPoint x="600" y="350" as="targetPoint"/>
                        <Array as="points">
                            <mxPoint x="570" y="365"/>
                        </Array>
                    </mxGeometry>
                </mxCell>
                <mxCell id="26" style="edgeStyle=none;html=1;entryX=0.5;entryY=1;entryDx=0;entryDy=0;" parent="1" target="29" edge="1">
                    <mxGeometry relative="1" as="geometry">
                        <mxPoint x="-180" y="660" as="targetPoint"/>
                        <mxPoint x="-200" y="690" as="sourcePoint"/>
                    </mxGeometry>
                </mxCell>
                <mxCell id="27" value="账户权限信息" style="edgeLabel;html=1;align=center;verticalAlign=middle;resizable=0;points=[];" parent="26" vertex="1" connectable="0">
                    <mxGeometry x="-0.5077" y="6" relative="1" as="geometry">
                        <mxPoint x="23" y="-38" as="offset"/>
                    </mxGeometry>
                </mxCell>
                <mxCell id="28" style="edgeStyle=none;html=1;exitX=0.75;exitY=0;exitDx=0;exitDy=0;entryX=0.5;entryY=1;entryDx=0;entryDy=0;" parent="1" source="29" target="8" edge="1">
                    <mxGeometry relative="1" as="geometry"/>
                </mxCell>
                <mxCell id="29" value="学生账户信息" style="html=1;dashed=0;whitespace=wrap;shape=partialRectangle;right=0;left=0;" parent="1" vertex="1">
                    <mxGeometry x="-50" y="560" width="150" height="60" as="geometry"/>
                </mxCell>
                <mxCell id="30" value="" style="curved=1;endArrow=classic;html=1;entryX=0.5;entryY=0;entryDx=0;entryDy=0;exitX=1.01;exitY=0.602;exitDx=0;exitDy=0;exitPerimeter=0;" parent="1" source="22" target="29" edge="1">
                    <mxGeometry width="50" height="50" relative="1" as="geometry">
                        <mxPoint x="-110" y="450" as="sourcePoint"/>
                        <mxPoint x="-60" y="400" as="targetPoint"/>
                        <Array as="points">
                            <mxPoint x="-30" y="382"/>
                            <mxPoint x="15" y="460"/>
                        </Array>
                    </mxGeometry>
                </mxCell>
                <mxCell id="31" style="edgeStyle=none;html=1;exitX=0.75;exitY=1;exitDx=0;exitDy=0;entryX=0.5;entryY=0;entryDx=0;entryDy=0;" parent="1" source="34" target="8" edge="1">
                    <mxGeometry relative="1" as="geometry"/>
                </mxCell>
                <mxCell id="32" style="edgeStyle=none;html=1;entryX=0.5;entryY=0;entryDx=0;entryDy=0;" parent="1" target="34" edge="1">
                    <mxGeometry relative="1" as="geometry">
                        <mxPoint x="-70" y="40" as="targetPoint"/>
                        <mxPoint x="-130" y="60" as="sourcePoint"/>
                    </mxGeometry>
                </mxCell>
                <mxCell id="33" value="账户权限信息" style="edgeLabel;html=1;align=center;verticalAlign=middle;resizable=0;points=[];" parent="32" vertex="1" connectable="0">
                    <mxGeometry x="-0.219" relative="1" as="geometry">
                        <mxPoint x="16" y="-20" as="offset"/>
                    </mxGeometry>
                </mxCell>
                <mxCell id="34" value="教师账户信息" style="html=1;dashed=0;whitespace=wrap;shape=partialRectangle;right=0;left=0;" parent="1" vertex="1">
                    <mxGeometry x="10" y="110" width="150" height="60" as="geometry"/>
                </mxCell>
                <mxCell id="35" value="" style="curved=1;endArrow=classic;html=1;entryX=0.25;entryY=1;entryDx=0;entryDy=0;exitX=0.929;exitY=0.218;exitDx=0;exitDy=0;exitPerimeter=0;" parent="1" source="22" target="34" edge="1">
                    <mxGeometry width="50" height="50" relative="1" as="geometry">
                        <mxPoint x="-80" y="290" as="sourcePoint"/>
                        <mxPoint x="-30" y="240" as="targetPoint"/>
                        <Array as="points">
                            <mxPoint x="-40" y="318"/>
                            <mxPoint x="18" y="250"/>
                        </Array>
                    </mxGeometry>
                </mxCell>
                <mxCell id="36" value="学科竞赛分类目录" style="html=1;dashed=0;whitespace=wrap;shape=partialRectangle;right=0;left=0;" parent="1" vertex="1">
                    <mxGeometry x="450" y="200" width="150" height="60" as="geometry"/>
                </mxCell>
                <mxCell id="37" value="" style="curved=1;endArrow=classic;html=1;entryX=0.5;entryY=1;entryDx=0;entryDy=0;exitX=0.998;exitY=0.393;exitDx=0;exitDy=0;exitPerimeter=0;" parent="1" source="8" target="36" edge="1">
                    <mxGeometry width="50" height="50" relative="1" as="geometry">
                        <mxPoint x="460" y="360" as="sourcePoint"/>
                        <mxPoint x="510" y="310" as="targetPoint"/>
                        <Array as="points">
                            <mxPoint x="440" y="365"/>
                            <mxPoint x="525" y="300"/>
                        </Array>
                    </mxGeometry>
                </mxCell>
            </root>
        </mxGraphModel>
    </diagram>
</mxfile>